solid 
   facet normal -1.000000e+00 0.000000e+00 0.000000e+00
      outer loop
         vertex -1.000000e+02 1.224647e-14 1.000000e+00
         vertex -1.000000e+02 1.224647e-14 0.000000e+00
         vertex -1.000000e+02 -1.000000e+02 0.000000e+00
      endloop
   endfacet
   facet normal -1.000000e+00 -0.000000e+00 0.000000e+00
      outer loop
         vertex -1.000000e+02 -1.000000e+02 1.000000e+00
         vertex -1.000000e+02 1.224647e-14 1.000000e+00
         vertex -1.000000e+02 -1.000000e+02 0.000000e+00
      endloop
   endfacet
   facet normal 0.000000e+00 -1.000000e+00 0.000000e+00
      outer loop
         vertex -1.000000e+02 -1.000000e+02 1.000000e+00
         vertex -1.000000e+02 -1.000000e+02 0.000000e+00
         vertex -1.224647e-14 -1.000000e+02 0.000000e+00
      endloop
   endfacet
   facet normal 0.000000e+00 -1.000000e+00 0.000000e+00
      outer loop
         vertex -1.224647e-14 -1.000000e+02 1.000000e+00
         vertex -1.000000e+02 -1.000000e+02 1.000000e+00
         vertex -1.224647e-14 -1.000000e+02 0.000000e+00
      endloop
   endfacet
   facet normal 1.000000e+00 -1.224647e-16 0.000000e+00
      outer loop
         vertex -1.224647e-14 -1.000000e+02 1.000000e+00
         vertex -1.224647e-14 -1.000000e+02 0.000000e+00
         vertex 0.000000e+00 0.000000e+00 0.000000e+00
      endloop
   endfacet
   facet normal 1.000000e+00 -1.224647e-16 0.000000e+00
      outer loop
         vertex 0.000000e+00 0.000000e+00 1.000000e+00
         vertex -1.224647e-14 -1.000000e+02 1.000000e+00
         vertex 0.000000e+00 0.000000e+00 0.000000e+00
      endloop
   endfacet
   facet normal 1.224647e-16 1.000000e+00 -0.000000e+00
      outer loop
         vertex 0.000000e+00 0.000000e+00 1.000000e+00
         vertex 0.000000e+00 0.000000e+00 0.000000e+00
         vertex -1.000000e+02 1.224647e-14 0.000000e+00
      endloop
   endfacet
   facet normal 1.224647e-16 1.000000e+00 0.000000e+00
      outer loop
         vertex -1.000000e+02 1.224647e-14 1.000000e+00
         vertex 0.000000e+00 0.000000e+00 1.000000e+00
         vertex -1.000000e+02 1.224647e-14 0.000000e+00
      endloop
   endfacet
   facet normal 0.000000e+00 0.000000e+00 1.000000e+00
      outer loop
         vertex 0.000000e+00 0.000000e+00 1.000000e+00
         vertex -1.000000e+02 1.224647e-14 1.000000e+00
         vertex -1.000000e+02 -1.000000e+02 1.000000e+00
      endloop
   endfacet
   facet normal 0.000000e+00 0.000000e+00 1.000000e+00
      outer loop
         vertex -1.224647e-14 -1.000000e+02 1.000000e+00
         vertex 0.000000e+00 0.000000e+00 1.000000e+00
         vertex -1.000000e+02 -1.000000e+02 1.000000e+00
      endloop
   endfacet
   facet normal 0.000000e+00 0.000000e+00 -1.000000e+00
      outer loop
         vertex -1.224647e-14 -1.000000e+02 0.000000e+00
         vertex -1.000000e+02 -1.000000e+02 0.000000e+00
         vertex -1.000000e+02 1.224647e-14 0.000000e+00
      endloop
   endfacet
   facet normal 0.000000e+00 0.000000e+00 -1.000000e+00
      outer loop
         vertex -1.224647e-14 -1.000000e+02 0.000000e+00
         vertex -1.000000e+02 1.224647e-14 0.000000e+00
         vertex 0.000000e+00 0.000000e+00 0.000000e+00
      endloop
   endfacet
endsolid
